<?xml version="1.0" standalone="no"?>
<!DOCTYPE svg PUBLIC "-//W3C//DTD SVG 20010904//EN"
 "http://www.w3.org/TR/2001/REC-SVG-20010904/DTD/svg10.dtd">
<svg version="1.0" xmlns="http://www.w3.org/2000/svg"
 width="2341.000000pt" height="2012.000000pt" viewBox="0 0 2341.000000 2012.000000"
 preserveAspectRatio="xMidYMid meet">

<g transform="translate(0.000000,2012.000000) scale(0.100000,-0.100000)"
fill="#000000" stroke="none">
<path d="M11676 19678 c-8 -34 -268 -464 -462 -768 -296 -461 -1177 -1830
-1266 -1966 -47 -72 -96 -139 -109 -148 -49 -34 -76 -24 -499 183 -223 109
-866 419 -1430 689 -564 270 -1263 605 -1555 746 -344 166 -541 256 -561 256
-31 0 -31 -1 -24 -38 4 -25 70 -138 185 -318 279 -437 1226 -1929 1708 -2689
240 -379 521 -820 624 -980 l188 -290 75 -43 c54 -30 76 -38 78 -28 2 7 -8 59
-22 114 -38 150 -49 277 -44 547 l3 241 35 58 c41 68 97 120 159 148 39 18 70
21 243 24 l198 3 60 -31 c61 -30 162 -114 181 -150 6 -11 13 -66 15 -122 2
-55 9 -166 15 -245 19 -238 2 -378 -64 -513 l-33 -68 852 0 853 0 3 102 3 102
33 10 32 9 -2 311 -3 311 -30 5 -30 5 0 130 0 130 145 3 c247 5 240 10 452
-342 l108 -181 -2 125 -3 125 -30 5 -30 5 0 130 0 130 230 0 230 0 0 -130 0
-129 -25 -6 -25 -6 -3 -312 -2 -311 32 -9 33 -8 3 -106 3 -106 62 -7 c34 -4
382 -5 772 -3 536 2 715 6 731 15 29 17 35 34 41 127 6 76 7 79 35 90 l28 10
-2 310 -3 310 -25 6 -25 6 0 129 0 130 425 0 425 0 3 -154 c1 -85 -1 -158 -5
-162 -14 -13 -267 12 -279 27 -8 10 -35 14 -93 14 l-81 0 0 -91 c0 -96 1 -97
46 -57 19 16 35 18 140 16 l119 -3 0 -180 0 -180 -115 -3 c-98 -2 -118 0 -140
16 -51 38 -50 39 -50 -52 l0 -86 95 0 c85 0 95 2 105 20 10 19 19 20 138 18
l127 -3 0 -75 c1 -41 2 -89 3 -107 2 -35 45 -93 70 -93 22 0 151 83 183 117
34 36 132 188 659 1028 235 374 620 986 855 1360 460 730 691 1101 952 1528
176 287 198 338 152 350 -57 16 -51 18 -849 -361 -510 -242 -759 -361 -1330
-639 -524 -256 -1104 -533 -1593 -763 l-217 -102 -32 19 c-38 22 -58 54 -728
1113 -988 1564 -993 1572 -1068 1753 -14 33 -47 36 -56 5z"/>
<path d="M4482 16663 c-16 -41 -28 -2738 -13 -2777 22 -56 290 -501 621 -1031
185 -297 415 -670 510 -830 210 -351 276 -457 485 -780 212 -329 236 -368 480
-790 250 -434 352 -603 832 -1380 451 -731 717 -1166 848 -1385 294 -492 682
-1121 806 -1307 73 -108 95 -128 186 -171 l58 -27 270 0 c257 0 272 1 317 22
183 85 302 426 243 700 -36 171 -67 232 -423 830 -154 259 -362 617 -463 795
-264 467 -455 800 -721 1253 -309 527 -367 629 -548 960 -211 388 -333 599
-535 930 -192 314 -315 526 -735 1270 -319 564 -438 771 -930 1615 -500 859
-959 1653 -1095 1897 -111 198 -137 233 -174 233 -5 0 -13 -12 -19 -27z"/>
<path d="M18878 16347 c-232 -343 -399 -599 -893 -1367 -761 -1184 -1071
-1641 -1493 -2202 l-168 -225 185 -324 c369 -642 394 -679 630 -922 l27 -28
59 86 c32 47 62 85 66 85 5 0 22 -18 40 -40 l32 -39 136 202 c76 111 297 432
492 712 728 1046 975 1412 1037 1543 l37 77 3 1305 c2 718 0 1327 -5 1353 l-8
46 -177 -262z"/>
<path d="M8976 15115 c-27 -8 -54 -19 -60 -25 -7 -7 -12 -98 -14 -279 -3 -318
-10 -302 117 -309 116 -7 111 -20 111 313 0 271 0 272 -23 293 -26 25 -59 27
-131 7z"/>
<path d="M11490 14623 l0 -112 33 -9 32 -8 3 -107 3 -107 100 0 101 0 -26 44
c-14 24 -75 126 -136 227 l-110 184 0 -112z"/>
<path d="M11437 13503 c-4 -3 -87 -7 -185 -7 l-178 -1 -76 -38 c-95 -47 -172
-126 -225 -233 l-38 -77 -3 -261 -4 -261 79 -125 c44 -69 111 -174 150 -235
65 -101 137 -223 599 -1010 87 -148 291 -488 454 -755 408 -667 870 -1440
1099 -1838 105 -182 262 -448 348 -590 700 -1152 803 -1324 979 -1642 68 -123
139 -199 221 -238 l58 -27 223 2 c281 2 273 -1 391 152 134 176 172 249 197
376 32 163 1 248 -246 660 -73 121 -245 420 -382 665 -138 245 -385 679 -548
965 -163 286 -379 666 -480 845 -100 179 -316 557 -480 840 -365 631 -504 877
-694 1223 -81 148 -213 379 -293 515 -177 298 -302 518 -407 713 -133 248
-205 328 -335 369 -62 20 -209 28 -224 13z"/>
<path d="M13633 13445 c-93 -47 -207 -196 -244 -316 -18 -60 -20 -86 -15 -249
l5 -182 57 -101 c32 -56 151 -257 264 -447 236 -394 579 -991 1060 -1845 395
-701 691 -1219 845 -1480 495 -839 700 -1190 1076 -1843 727 -1259 834 -1439
1191 -2003 261 -411 354 -560 543 -869 76 -124 238 -378 360 -565 215 -330
278 -431 611 -980 303 -500 997 -1604 1135 -1804 68 -98 79 -110 84 -90 3 13
4 571 3 1239 -3 1214 -3 1215 -24 1272 -12 31 -43 89 -69 130 -103 158 -217
349 -433 723 -368 639 -629 1083 -917 1565 -149 250 -362 613 -472 805 -220
384 -325 560 -735 1230 -371 607 -478 789 -805 1361 -316 552 -312 545 -526
896 -86 141 -306 519 -490 840 -184 321 -439 756 -569 968 -129 212 -367 610
-528 885 -161 275 -326 553 -367 617 -82 129 -162 212 -221 227 -65 17 -251
30 -512 37 l-255 6 -52 -27z"/>
<path d="M8459 13412 c-72 -24 -136 -70 -181 -130 -125 -164 -209 -440 -180
-592 19 -106 230 -468 602 -1035 231 -353 288 -447 525 -865 283 -501 658
-1131 1212 -2035 165 -269 525 -863 800 -1320 639 -1062 680 -1128 726 -1175
20 -22 50 -46 66 -55 54 -27 168 -37 386 -33 252 5 252 5 326 115 104 153 152
299 152 458 0 198 -73 373 -348 835 -67 113 -187 315 -265 450 -79 135 -283
484 -455 775 -172 292 -436 744 -587 1005 -152 261 -373 637 -493 835 -120
198 -341 574 -490 835 -150 261 -396 682 -547 935 -151 253 -315 528 -363 610
-152 262 -200 321 -296 371 -47 25 -65 28 -139 28 -47 0 -105 -1 -130 -3 -25
-2 -94 -1 -155 3 -93 5 -119 3 -166 -12z"/>
<path d="M6675 8353 c-24 -5 0 34 -370 -593 -161 -272 -368 -616 -460 -765
-362 -582 -555 -910 -962 -1635 -193 -343 -319 -552 -881 -1467 -238 -386
-447 -731 -465 -765 l-32 -63 -3 -609 c-2 -408 1 -613 8 -620 7 -7 10 -212 10
-610 1 -553 2 -604 18 -634 l18 -33 34 23 c28 19 54 61 135 218 55 107 127
240 159 295 33 55 175 294 316 530 142 237 344 578 450 759 105 182 273 461
373 620 99 160 331 554 515 876 184 322 494 851 690 1175 195 325 457 763 582
975 125 212 273 459 329 550 186 299 228 414 217 594 -9 165 -24 309 -34 336
-12 31 -270 420 -436 658 -134 193 -142 199 -211 185z"/>
</g>
</svg>
